<svg xmlns="http://www.w3.org/2000/svg" xmlns:xlink="http://www.w3.org/1999/xlink" id="Capa_2" data-name="Capa 2" viewBox="0 0 183.94 12.95"><defs><style> .cls-1 { fill: url(#Degradado_sin_nombre_5); stroke-width: 0px; } </style><linearGradient id="Degradado_sin_nombre_5" data-name="Degradado sin nombre 5" x1="0" y1="6.48" x2="183.94" y2="6.48" gradientUnits="userSpaceOnUse"><stop offset="0" stop-color="#ddc193"></stop><stop offset=".17" stop-color="#cfb887"></stop><stop offset=".35" stop-color="#eccfaa"></stop><stop offset=".52" stop-color="#ffedc4"></stop><stop offset=".99" stop-color="#ddc193"></stop></linearGradient></defs><g id="Capa_1-2" data-name="Capa 1"><path class="cls-1" d="M183.94,6.48s-2.75-2.21-4.79-1.86c.93-1.23.96-2.56,0-4.62-1.6,3.36-6.66,5.18-9.58,5.98h-3.77c-.34-.86-1.54-1.5-2.97-1.5s-2.62.64-2.97,1.5h-61.09c-3.51,0-5.79-2.42-6.8-4.6-1.01,2.19-3.3,4.6-6.8,4.6H24.08c-.34-.86-1.54-1.5-2.97-1.5s-2.62.64-2.97,1.5h-3.77c-2.92-.8-7.99-2.62-9.58-5.98-.96,2.06-.93,3.39,0,4.62-2.04-.35-4.79,1.86-4.79,1.86,0,0,2.75,2.21,4.79,1.86-.93,1.23-.96,2.56,0,4.62,1.6-3.36,6.66-5.18,9.58-5.98h3.77c.34.86,1.54,1.5,2.97,1.5s2.62-.64,2.97-1.5h61.09c3.1,0,5.79,2.42,6.8,4.6,1.01-2.19,3.7-4.6,6.8-4.6h61.09c.34.86,1.54,1.5,2.97,1.5s2.62-.64,2.97-1.5h3.77c2.92.8,7.99,2.62,9.58,5.98.96-2.06.93-3.39,0-4.62,2.04.35,4.79-1.86,4.79-1.86Z"></path></g></svg>