<svg xmlns="http://www.w3.org/2000/svg" id="Capa_2" data-name="Capa 2" viewBox="0 0 177.96 60.47"><defs><style> .cls-1 { fill: #a7815d; stroke-width: 0px; } </style></defs><g id="Capa_1-2" data-name="Capa 1"><g><path class="cls-1" d="M161,30.25c1.51-.37,2.95-1.02,4.17-2,2.81-2.27,4.88-6.89,3.25-10.37-1.5-3.21-5.13-4.84-8.52-3.84-1.45.43-2.88,1.52-3.61,2.84-.18.21-.35.44-.49.69-.75,1.34-.79,3.55.46,4.62,1.01.86,2.65.64,3.44-.4,1.21-1.58-.14-3.89.5-5.4l.48-.48s.02,0,.03,0c1.17-.25,2.35-.11,3.44.4,3.3,1.55,3.33,5.22,1.75,8.02-2.36,4.2-6.52,4.62-10.7,5.11H1.08v-14.67c.04-.34.09-.67.13-1.01.49-4.16.94-8.35,5.11-10.64,2.53-1.39,6.04-1.68,7.79,1.16.55.88.82,2.28.76,3.31,0,.25-.04.48-.09.7l-.54.54c-1.49.63-3.76-.67-5.34.45-1.09.78-1.34,2.46-.46,3.49,1.03,1.21,3.12,1.2,4.44.54.32-.16.6-.36.86-.57.01,0,.02,0,.03-.02,1.21-.65,2.22-1.88,2.69-3.18,1.25-3.48-.38-7.37-3.72-8.94-3.36-1.57-7.76.31-10.07,2.91C1.53,4.77.79,6.33.38,7.98.13,8.98.02,10.02,0,11.06h0v38.84h.04c.17,3.21,1.6,6.38,4.16,8.38,2.84,2.22,7.82,3.17,10.85.81,2.68-2.09,3.56-5.88,1.98-8.91-.74-1.43-2.23-2.73-3.79-3.17-.32-.16-.65-.29-1.02-.37-1.39-.31-3.36.15-4.12,1.47-.67,1.18-.12,2.78,1.09,3.35,1.85.88,3.78-1.05,5.42-.78l.68.41c.37.79.54,1.74.44,2.81-.35,3.75-3.71,5.05-7.03,4.31-4.79-1.06-6.52-5.02-7.61-9.18v-18.53h154.78c.28.03.55.06.83.08,4.1,1.09,7.94,2.82,8.99,7.56.68,3.08-.26,6.21-3.69,6.95-1.28.28-2.47.11-3.44-.38l-.39-.65c-.27-1.64,1.64-3.59.78-5.43-.57-1.22-2.18-1.76-3.35-1.09-1.33.76-1.77,2.72-1.47,4.12.08.37.21.71.38,1.03.4,1.43,1.5,2.8,2.79,3.56,3.08,1.81,7.08,1.06,9.28-1.77,2.33-3,1.42-7.9-.73-10.75-1.23-1.63-2.94-2.79-4.84-3.49Z"></path><path class="cls-1" d="M165.08,29.81c-.2.02-.29.07-.28.26.02.05.13.24.17.28,2.01,2.26,12.21,6.35,12.95,1.43.83-5.58-11.04-2.17-12.84-1.97Z"></path></g></g></svg>